<svg height="512" viewBox="0 0 58 60" width="512" xmlns="http://www.w3.org/2000/svg"><g id="Page-1" fill="none" fill-rule="evenodd"><g id="002---Sleepy-Moon" fill="rgb(0,0,0)" fill-rule="nonzero"><path id="Shape" d="m8.013 18.1c-.23816432-.1166958-.51293135-.1340014-.76385517-.0481097-.25092383.0858918-.45744998.2679449-.57414483.5061097-1.83946609 3.7803199-2.74025766 7.9484533-2.626 12.151.01409947.5421051.45771159.9741833 1 .974h.027c.55197242-.0147168.98755254-.4740232.973-1.026-.10599292-3.879323.72481138-7.727024 2.422-11.217.11732837-.2383706.13497656-.5136327.04904955-.7650348-.08592702-.2514022-.2683651-.4582766-.50704955-.5749652z"/><path id="Shape" d="m10.027 16c.3147573 0 .6111456-.1481942.8-.4.5470777-.7264875 1.1350269-1.4212759 1.761-2.081.2538714-.2576063.348858-.6322194.248404-.9796683-.1004541-.3474488-.3806913-.6135775-.7328616-.6959657-.3521702-.0823882-.7213818.0318058-.9655424.298634-.6784013.7160683-1.31575273 1.4699392-1.909 2.258-.22726324.3030176-.26381921.7084296-.09442719 1.0472136.16939201.338784.51565513.5527864.89442719.5527864z"/><path id="Shape" d="m28.659 59.969c.451.02.9.031 1.347.031 12.2236951-.0087307 23.2277231-7.4104848 27.844-18.729.3304808-.8207714.0823743-1.7611495-.610005-2.3120526s-1.6644587-.5813864-2.389995-.0749474c-5.7224263 4.0898113-13.3761926 4.2202729-19.2346792.327863-5.8584865-3.8924099-8.7041039-10.9987184-7.1513208-17.858863.52428-.0048043 1.0249697-.2186143 1.391-.594 1.3220177-1.2400147 2.106275-2.9481523 2.185-4.759-.0225793-.5154748-.1444771-1.021741-.359-1.491 3.0406627-3.8625752 7.599946-6.22550056 12.509-6.483.4691109 1.74059532 2.0475554 2.9500607 3.8502582 2.950217 1.8027027.0001563 3.3813569-1.20903538 3.8507696-2.94954934.4694127-1.74051395-.2871524-3.57950901-1.8454694-4.48581217-1.5583169-.90630316-3.5308543-.65452964-4.8115584.61414451-4.6003212-2.7227166-9.8483351-4.15785533-15.194-4.155-4.614096-.01605899-9.1671939 1.05412968-13.291 3.124-.189-.036-.38-.087-.567-.114-2.2840385-.24529769-4.568671.45744371-6.32 1.944-.5957356.45185169-.88967422 1.19827064-.762 1.935.07418497.4145518.27920021.79444328.585 1.084-8.88888645 8.2083775-11.97581538 20.9535484-7.82790309 32.3194881 4.14791228 11.3659398 14.71840989 19.1269379 26.80490309 19.6805119zm19.381-54.969c1.1045695 0 2 .8954305 2 2s-.8954305 2-2 2-2-.8954305-2-2 .8954305-2 2-2zm-18-3c4.9890856-.00367083 9.8871495 1.3358702 14.18 3.878-.015.049-.033.1-.046.148-5.232985.25104403-10.1323088 2.64356885-13.548 6.616-2.832495-3.79133099-6.6131936-6.77015734-10.962-8.637 3.2964368-1.33312973 6.8202091-2.01404371 10.376-2.005zm-14.806 2.943c.2225078-.00032602.4447499.01538132.665.047 6.789.97 14.141 8.76 14.141 11.01-.0780638 1.2810737-.6614484 2.4787747-1.622 3.33-1.266-2.495-3.81-5.154-7.778-8.13-2.9291988-2.03923546-6.1587315-3.60879106-9.572-4.652 1.1729402-.98102379 2.6380429-1.54547168 4.166-1.605zm-3.548 3.929c2.7604366.92886286 5.3721086 2.2518765 7.754 3.928 3.717 2.788 6.07 5.22 7.2 7.435.008.016.02.028.029.044-1.9918985 7.7098138 1.0413406 15.8431797 7.5952301 20.3659467s15.2343095 4.4728681 21.7357699-.1249467c-4.350155 10.7439468-14.8705472 17.6967787-26.4598642 17.4870845-11.5893171-.2096942-21.85129987-7.5385571-25.80993815-18.4328411-3.95863827-10.8942841-.79542624-23.1014382 7.95580235-30.7022434z"/><path id="Shape" d="m12.04 34c.8026156.0234737 1.5793921-.2850527 2.1471697-.8528303s.876304-1.3445541.8528303-2.1471697c-.0005356-.545859-.4411543-.9891562-.987-.993h-.013c-.5436474.0030748-.9864984.4375116-1 .981.0291128.2741498-.0663894.5468874-.2601664.7429897-.193777.1961024-.465356.294851-.7398336.2690103-.2741851.0261168-.5456088-.0722548-.7393932-.267977-.1937844-.1957223-.2894505-.4681113-.2606068-.742023-.0027614-.5522847-.4527153-.9977614-1.005-.995-.55228474.0027615-.9977614.4527153-.995 1.005-.02347369.8026156.28505273 1.5793921.85283031 2.1471697.56777759.5677776 1.34455409.876304 2.14716969.8528303z"/><path id="Shape" d="m22.04 34c.8026156.0234737 1.5793921-.2850527 2.1471697-.8528303s.876304-1.3445541.8528303-2.1471697c-.0005356-.545859-.4411543-.9891562-.987-.993h-.013c-.5436474.0030748-.9864984.4375116-1 .981 0 .5522847-.4477153 1-1 1s-1-.4477153-1-1c-.0017863-.3572656-.1940359-.6864396-.5043301-.8635254-.3102943-.1770858-.6914921-.1751798-1 .005s-.4974562.5112598-.4956699.8685254c-.0240356.8029574.2842425 1.580264.8520841 2.1484842.5678417.5682202 1.3449426.8770163 2.1479159.8535158z"/><path id="Shape" d="m12.89 35.685c-.6308263.5955836-.9455401 1.452716-.85 2.315 0 3.687 2.583 5 5 5s5-1.313 5-5c.0955401-.862284-.2191737-1.7194164-.85-2.315-.8212745-.4330556-1.8021583-.438281-2.628-.014-.4888295.1824335-1.0014638.293246-1.522.329-.5205362-.035754-1.0331705-.1465665-1.522-.329-.8259634-.4237716-1.8065984-.4185475-2.628.014zm1.206 1.67c.2786415.0582441.5534823.1333829.823.225.6815506.2469636 1.3967655.3885903 2.121.42.7242345-.0314097 1.4394494-.1730364 2.121-.42.2695564-.0914906.5443895-.1666272.823-.225.0432618.2121524.0620512.4285662.056.645.102214.8227614-.1808237 1.6466712-.7670763 2.2329237-.5862525.5862526-1.4101623.8692903-2.2329237.7670763-.8227614.102214-1.6466712-.1808237-2.2329237-.7670763-.5862526-.5862525-.8692903-1.4101623-.7670763-2.2329237-.0047361-.2165872.0153956-.4330026.06-.645z"/><circle id="Oval" cx="26.04" cy="5" r="1"/><circle id="Oval" cx="36.04" cy="5" r="1"/><circle id="Oval" cx="32.04" cy="8" r="1"/><circle id="Oval" cx="30.04" cy="4" r="1"/><path id="Shape" d="m20.631 48.406c-2.093-.8-4.205-.2-4.808 1.368-.3010127.8750138-.1388178 1.8429146.431 2.572.565458.7590832 1.3401127 1.3366857 2.229 1.662.5889747.2309263 1.2153874.3515989 1.848.356 1.2503691.1009156 2.4315128-.5867884 2.961-1.724.602-1.57-.566-3.43-2.661-4.234zm.793 3.518c-.146.38-1.083.655-2.225.217-.5192992-.1860032-.9747797-.5162526-1.313-.952-.1726867-.1890946-.2467217-.4482173-.2-.7.093-.242.507-.441 1.09-.441.3887176.0049708.7732973.0805314 1.135.223 1.144.44 1.659 1.272 1.513 1.653z"/><path id="Shape" d="m24.929 52.94c-.0182912.9260103.4333147 1.7983623 1.2 2.318.7701441.5493181 1.6837831.8620891 2.629.9.105.006.209.009.313.009.8397167.0112058 1.6675431-.1992001 2.4-.61.8411725-.4056822 1.395799-1.2360412 1.4483846-2.1684488.0525857-.9324076-.4051602-1.819862-1.1953846-2.3175512-1.5835548-1.0959038-3.6477383-1.2117824-5.344-.3-.8196454.4307646-1.3656792 1.2469929-1.451 2.169zm2.462-.444c.4266284-.2297298.9055718-.3448141 1.39-.334.066 0 .132 0 .2.005.5513383.0186647 1.0859158.1941977 1.541.506.2187315.1276079.3663356.349014.4.6-.0602308.2474963-.2320568.4529485-.465.556-.4863837.2609145-1.0379896.3751955-1.588.329-.5511794-.0186987-1.0856588-.1938525-1.541-.505-.2525238-.0915217-.4150721-.3378985-.3998537-.6060644.0152184-.2681658.2045968-.4945708.4658537-.5569356z"/><circle id="Oval" cx="25.04" cy="48" r="1"/><circle id="Oval" cx="37.04" cy="54" r="1"/><circle id="Oval" cx="13.04" cy="47" r="1"/></g></g></svg>