<svg width="32" height="32" version="1.0" xmlns="http://www.w3.org/2000/svg" viewBox="0 0 530 528"><path d="M245.5 23.6c-1.6.2-7.3.9-12.5 1.5-40.8 4.5-87.8 24.6-120.5 51.3-40.8 33.3-71.1 81.3-82.8 131.1-4.9 20.6-6.2 32.3-6.2 56 0 39.7 6.9 69.9 24 105 11.7 24.2 26.1 44.4 45.3 63.8 31.4 31.8 70.9 54.3 113.6 64.8 20.4 5 32.8 6.3 57.1 6.3 40.1 0 69.6-6.7 105-23.9 24.7-12 46.1-27.3 65.7-47.2 19.2-19.4 33.6-39.6 45.3-63.8 11.5-23.6 18.1-44.8 22.2-71.5 2.4-16 2.4-51 0-67-6.8-44.3-24.5-84.5-52-118.5-7.9-9.7-25.7-27.4-35.2-35-33.4-26.8-74.6-44.8-116.6-51-9.9-1.5-46-2.8-52.4-1.9zm44 28.5c79.2 9.1 149.2 65.8 175.4 142.1 8 23.5 11.4 44.5 11.3 70.3-.1 33.8-7.1 63.4-22.3 93.6l-5.8 11.6-13-2.5c-11.7-2.4-13-2.8-13.4-4.9-.3-1.5.3-2.7 1.8-3.7 1.2-.8 2.8-2.9 3.5-4.6 1.6-3.8.9-6.3-6.5-24.5-5.9-14.5-7.9-23-12.5-51.7-1.7-10.9-3.5-21-4.1-22.5-1.9-5-13.9-20.1-22.4-28.1-21.7-20.5-57-29.7-87.5-22.7-22.8 5.2-33.8 5.2-46.1 0-15.2-6.4-19.5-7.7-27.6-8.2-13.5-.9-24.4 2.1-39.3 10.9-4.1 2.5-15.7 8.8-25.7 14.1-14.6 7.8-18.9 9.7-22.3 9.7-2.9 0-6.1 1.1-10.7 3.6-5.5 3.1-7 3.6-10.7 3.1-5.4-.8-5.7-.4-12.9 13.3-3.5 6.8-6.1 13.2-7.1 18.1-1.7 7.7-5.1 14-12.1 22.2-6.1 7.1-4.6 9.8 8.1 14.2 6.2 2.2 7 2.8 9.1 6.9 3 6 5.3 6.5 16.3 3.8 7.1-1.7 9.4-1.9 12.2-1 4.9 1.5 7.7.6 14-4.6 10.8-8.8 22.9-14.6 30.5-14.6 4.3 0 4.8 1.4 3.3 9.6-1.7 9-7.4 20.1-16 31.4-12.3 16.1-11.1 15.3-32 22-10.2 3.3-23.5 7.2-29.5 8.8-6.1 1.6-12 3.2-13.2 3.6-1.9.6-2.8-.7-8.6-12.1-15.6-30.9-22.8-60.5-22.9-94.8-.1-18.8 1.1-30.3 4.8-47.3 17.6-79.9 81.7-143.9 161.6-161.6 24.1-5.3 47-6.4 72.3-3.5zm1.8 262.8c4.4 1.7 5.8 6.5 5.9 19.6 0 6.2-.3 12.2-.6 13.3-.8 2.5-3.3 3.2-12.3 3.2-8.8 0-10.3-1.5-7.7-7.6 2.1-5 1.3-10.4-2.6-19-3-6.8-3.6-9.4-2.2-10.8.9-1.1 16 0 19.5 1.3zM235.8 332c6.1 5.6 11.2 10.5 11.2 10.9 0 1.5-2.5 3-9.3 5.6-7 2.6-16.2 3.9-35.9 5.1-9.7.5-11.8.4-11.8-.7 0-.8 4.8-6.2 10.8-12 14.9-14.6 19.9-18.9 21.9-18.9 1 0 6.9 4.5 13.1 10zm131 .9c6.1 7 12.7 10.5 23.1 12.2 7.9 1.3 10.8 3.3 7.6 5.2-1.1.7-5.4 2.5-9.5 4l-7.5 2.9-21.8-2.3c-12.1-1.3-22.6-2.8-23.4-3.4-1.1-.8-1.3-1.7-.7-2.8 1-1.7 25.1-21.7 26.2-21.7.4 0 3.1 2.7 6 5.9z"/></svg>
