<svg width="28" height="28" viewBox="0 0 28 28" fill="none" xmlns="http://www.w3.org/2000/svg">
<rect width="28" height="28" rx="14" fill="white"/>
<path fill-rule="evenodd" clip-rule="evenodd" d="M11.9287 1.10052C5.85091 2.21577 1.46261 7.10027 1.0305 13.2312C0.584789 19.5542 5.07139 25.4206 11.4139 26.8075C12.7163 27.0924 15.652 27.0548 16.9584 26.7365C20.8832 25.7806 24.2549 23.0197 25.8803 19.4309C26.755 17.4994 27.0111 16.2456 26.9996 13.9496C26.9907 12.1458 26.9326 11.6719 26.5728 10.4759C25.2301 6.01101 21.8811 2.66246 17.5124 1.41678C16.2226 1.049 13.1561 0.875396 11.9287 1.10052ZM16.2997 2.65705C19.2562 3.21483 22.409 5.45415 23.9885 8.11789C25.8721 11.2944 26.0665 15.4628 24.4884 18.8389L24.0421 19.7937L23.3303 19.6306C22.6314 19.4705 22.4661 19.3227 22.773 19.1329C23.0153 18.9829 22.9575 18.5641 22.5574 17.5736C22.3537 17.0696 22.0709 15.961 21.9287 15.11C21.6499 13.4409 21.3246 12.7915 20.3295 11.9167C19.1092 10.8441 17.5168 10.5601 14.7325 10.9184C13.8523 11.0317 13.621 11.004 12.9175 10.7009C11.6168 10.1408 10.6855 10.2916 8.78773 11.37C7.9382 11.8528 7.09037 12.2476 6.90367 12.2476C6.71683 12.2476 6.52102 12.3173 6.46848 12.4024C6.41593 12.4875 6.17469 12.5571 5.9322 12.5571C5.55558 12.5571 5.43349 12.6739 5.09132 13.361C4.87125 13.8032 4.69121 14.2772 4.69121 14.4141C4.69121 14.551 4.51734 14.899 4.30484 15.1874C3.7916 15.8838 3.81648 16.058 4.45939 16.2705C4.75689 16.3687 5.0003 16.5516 5.0003 16.6766C5.0003 16.8592 5.19116 16.8918 5.9662 16.8417C6.71652 16.7934 7.10273 16.6709 7.69649 16.2929C8.52439 15.7658 9.17301 15.6562 9.17301 16.0433C9.17301 16.4597 8.72097 17.382 8.14869 18.1332C7.62617 18.8192 7.50084 18.8907 6.0206 19.3456C5.15562 19.6116 4.36465 19.8291 4.26312 19.8291C4.16143 19.8291 3.89236 19.4637 3.66518 19.0168C2.93047 17.5723 2.66358 16.4645 2.57332 14.4863C2.46993 12.2172 2.78752 10.7111 3.79624 8.68898C4.31613 7.64675 4.74159 7.08155 5.84674 5.96536C7.63545 4.15865 9.47005 3.12725 11.723 2.66169C12.6178 2.47679 15.3295 2.47401 16.2997 2.65705ZM15.7872 17.779L15.8331 18.7461H15.3046C14.7879 18.7461 14.7742 18.7294 14.6977 18.0111C14.6547 17.607 14.5671 17.1499 14.5033 16.9955C14.3997 16.7458 14.4614 16.7203 15.064 16.7634L15.7412 16.812L15.7872 17.779ZM12.6239 17.7906L13.2011 18.3825L12.7956 18.5674C12.233 18.824 10.1003 18.9944 10.1003 18.7827C10.1003 18.5853 11.6558 17.2079 11.8848 17.2025C11.9738 17.2005 12.3064 17.4651 12.6239 17.7906ZM19.739 17.8887C19.9481 18.0981 20.3163 18.3128 20.5574 18.3659C21.4297 18.5581 21.4839 18.617 20.9957 18.8417C20.6602 18.9961 20.1904 19.0289 19.2957 18.9604C18.6157 18.9084 17.996 18.8278 17.9187 18.7815C17.7849 18.7012 19.0219 17.5225 19.2501 17.5129C19.3099 17.5103 19.53 17.6795 19.739 17.8887Z" fill="black"/>
</svg>
