<svg width="32" height="32" viewBox="0 0 32 32" fill="none" xmlns="http://www.w3.org/2000/svg">
<rect width="32" height="32" fill="white"/>
<mask id="mask0_108_2" style="mask-type:alpha" maskUnits="userSpaceOnUse" x="2" y="2" width="28" height="28">
<circle cx="16" cy="16" r="14" fill="#D9D9D9"/>
</mask>
<g mask="url(#mask0_108_2)">
</g>
<g clip-path="url(#clip0_108_2)">
<path d="M28.2592 12.3826C27.625 17.6536 25.7567 23.8211 20.7892 27.9874C25.6274 26.0355 28.7943 21.3398 28.791 16.1227C28.7971 14.8568 28.6179 13.5967 28.2592 12.3826Z" fill="#0ACF83"/>
<path d="M7.68352 5.96956C9.91464 5.28545 12.0406 4.29648 14.0011 3.03067C11.6457 3.34623 9.4422 4.3713 7.68352 5.96956Z" fill="#0ACF83"/>
<path d="M18.2219 3C20.0578 4.17966 22.0409 5.11274 24.1202 5.77524C22.4581 4.30791 20.412 3.34516 18.2219 3Z" fill="#0ACF83"/>
<path d="M3.85818 11.5644C3.39647 12.9257 3.16598 14.3546 3.1763 15.792C3.16607 21.163 6.52253 25.9646 11.5702 27.7999C6.30953 23.5075 4.4446 16.9955 3.85818 11.5644Z" fill="#0ACF83"/>
<path d="M26.9295 12.3076C27.1039 10.849 27.1972 9.38187 27.2091 7.91293C25.8988 7.64128 24.6055 7.29292 23.336 6.86966C21.4415 6.2663 19.6349 5.41572 17.9628 4.33989C17.3798 3.96031 16.827 3.53628 16.3093 3.07159H16.0604C15.5564 3.52223 15.0197 3.93476 14.4546 4.30579C12.6706 5.46004 10.7349 6.36078 8.70292 6.98216C7.53479 7.35479 6.34781 7.66547 5.14693 7.91293C5.14693 9.09939 5.21853 10.4427 5.37195 11.8644C5.90381 16.8114 7.60169 22.7404 12.3851 26.6509C13.5381 27.5999 14.8132 28.3899 16.1763 29C17.6036 28.3639 18.9338 27.5294 20.1278 26.5214C24.652 22.7267 26.3533 17.1081 26.9295 12.3076ZM19.4664 24.053C18.9244 24.518 18.3452 24.9376 17.7344 25.3076C17.4105 25.502 17.0764 25.6827 16.7354 25.8497C16.5646 25.964 16.3738 26.045 16.1729 26.0884C15.9824 26.046 15.8011 25.9698 15.6376 25.8634C14.3404 25.2329 13.1589 24.388 12.143 23.3643C11.9521 23.1699 11.768 22.9688 11.5907 22.7642C10.0873 20.9628 9.00726 18.847 8.43017 16.5728C8.23243 15.8432 8.07105 15.1045 7.94604 14.3567C7.71032 12.8794 7.58836 11.3863 7.58123 9.89037C7.58197 9.77848 7.6573 9.68083 7.76534 9.65172C8.57336 9.48125 9.37798 9.28009 10.1519 9.03803C10.7486 8.85733 11.335 8.65276 11.9146 8.41751C12.4942 8.18228 12.9817 7.95726 13.4931 7.68791L13.7113 7.57199C14.2122 7.31065 14.6941 7.01444 15.1535 6.68555C15.358 6.53553 15.5524 6.37871 15.7433 6.21164C15.8524 6.11618 15.9376 6.0139 16.0842 6.00367C16.1422 6.00026 16.2002 6.00026 16.2581 6.00367C16.3237 6.00147 16.387 6.02755 16.432 6.07527C16.8426 6.45236 17.2839 6.79449 17.7514 7.09808C19.7971 8.42434 22.1836 9.19145 24.5702 9.68581C24.6776 9.71594 24.7524 9.81297 24.7543 9.92447C24.7543 10.1597 24.7543 10.395 24.7543 10.6336C24.7182 12.1622 24.5517 13.6849 24.2565 15.1852C24.1023 15.9631 23.9031 16.7315 23.6599 17.4865C23.105 19.2552 22.2391 20.9108 21.1029 22.3756C20.6114 22.9849 20.0634 23.5466 19.4664 24.053Z" fill="#0ACF83"/>
</g>
<defs>
<clipPath id="clip0_108_2">
<rect width="26" height="26" fill="white" transform="translate(3 3)"/>
</clipPath>
</defs>
</svg>
