<svg width="28" height="28" viewBox="0 0 28 28" fill="none" xmlns="http://www.w3.org/2000/svg">
<rect width="28" height="28" rx="14" fill="#d1d5db"/>
<path d="M9.57 21H6.852V10.416H3.36V8.148H13.062V10.416H9.57V21ZM21.6442 21L20.7082 17.94H16.0282L15.0922 21H12.1582L16.6942 8.094H20.0242L24.5782 21H21.6442ZM19.1242 12.666C19.0642 12.462 18.9862 12.204 18.8902 11.892C18.7942 11.58 18.6982 11.262 18.6022 10.938C18.5062 10.614 18.4282 10.332 18.3682 10.092C18.3082 10.332 18.2242 10.632 18.1162 10.992C18.0202 11.34 17.9242 11.676 17.8282 12C17.7442 12.312 17.6782 12.534 17.6302 12.666L16.7122 15.654H20.0602L19.1242 12.666Z" fill="white"/>
</svg>
