<svg width="32" height="32" viewBox="0 0 32 32" fill="none" xmlns="http://www.w3.org/2000/svg">
<rect width="32" height="32" fill="white"/>
<path fill-rule="evenodd" clip-rule="evenodd" d="M11.1932 24.4532H16.3319L19.0001 27.7617L18.5413 28.8889H11.9023L12.0652 27.7617L10.5001 25.3269L11.1932 24.4532ZM14.8702 9.91831L17.6243 9.91422L30 24.4651L29.0385 28.8889H23.7343L24.0645 27.6425L12.5001 14.0423L14.8702 9.91831V9.91831ZM19.7361 4L25.4892 8.45939L24.7526 9.20897L25.7502 10.579V12.044L22.882 14.3499L18.0584 8.72967H15.2501L16.3808 6.68567L19.7359 4H19.7361ZM7.66045 18.2825L11.6736 14.8428L17.0001 21.1642L15.4879 23.48H10.5764L7.17859 27.8774L6.40257 28.8889H2V23.4934L6.10348 18.2825H7.66045Z" fill="#003459"/>
</svg>
