<svg width="28" height="28" viewBox="0 0 28 28" fill="none" xmlns="http://www.w3.org/2000/svg">
<g clip-path="url(#clip0_101_36)">
<rect width="28" height="28" rx="14" fill="white"/>
<path d="M11.6906 27.8128C10.7407 27.6593 10.0595 27.4866 9.82929 27.3427C9.78132 27.3139 9.65659 27.2755 9.56065 27.2659C9.30161 27.2275 7.68019 26.5176 7.19088 26.2297C6.95103 26.0954 6.59604 25.8843 6.40416 25.7692C5.58865 25.2895 4.80192 24.6371 3.89048 23.6777C3.04619 22.7854 2.72958 22.392 2.01961 21.2887C1.93326 21.1544 1.60705 20.5212 1.30963 19.8784C-0.359758 16.3573 -0.436511 12.1838 1.09856 8.54761C1.8565 6.75349 2.61445 5.63097 4.13033 4.10549C6.61523 1.59181 9.79091 0.191058 13.4079 0.0183623C14.7223 -0.0487971 14.9718 0.0759275 13.9356 0.267812C13.0433 0.430913 11.6906 0.901029 10.8847 1.32317C9.77172 1.91801 9.54146 2.05233 9.51268 2.12909C9.49349 2.16746 9.41674 2.19625 9.34958 2.19625C9.28242 2.19625 9.20567 2.26341 9.16729 2.34016C9.13851 2.41691 9.05216 2.48407 8.96581 2.48407C8.88906 2.48407 8.8219 2.53204 8.8219 2.58001C8.8219 2.63758 8.74514 2.71433 8.6588 2.74312C8.4861 2.81028 7.57465 3.69294 7.57465 3.78888C7.57465 3.81767 7.38277 4.07671 7.14291 4.37413C6.53848 5.11288 5.71337 6.52323 5.41595 7.32915C4.90746 8.67233 4.68679 9.90039 4.66761 11.4067C4.63882 13.8244 5.20488 15.6953 6.59604 17.8348C7.79532 19.6673 10.1651 21.5094 12.2278 22.2289C13.5231 22.6799 14.3386 22.843 15.557 22.8909C18.7711 23.0253 21.5246 22.1426 23.8368 20.2333C25.6405 18.7271 26.859 16.8274 27.569 14.3809C27.9432 13.1145 27.9527 13.0953 27.9911 13.9012C28.0775 15.8584 27.5306 18.2186 26.504 20.3005C26.2162 20.8953 25.8708 21.4902 25.7461 21.6245C25.6214 21.7588 25.5158 21.9123 25.5158 21.9699C25.5158 22.0179 25.4487 22.085 25.3719 22.1138C25.2951 22.1522 25.228 22.2385 25.228 22.3057C25.228 22.3825 25.1608 22.4688 25.0841 22.4976C25.0073 22.536 24.9402 22.6127 24.9402 22.6799C24.9402 22.7566 24.8346 22.8909 24.7003 22.9965C24.566 23.102 24.4605 23.2267 24.4605 23.2747C24.4605 23.3802 23.7601 24.071 23.6545 24.071C23.6066 24.071 23.4051 24.2341 23.2132 24.4356C23.0213 24.6275 22.6567 24.9441 22.3977 25.1264C22.1387 25.3087 21.8604 25.5389 21.7837 25.6349C21.6973 25.7212 21.5534 25.798 21.4575 25.798C21.3711 25.798 21.2656 25.8556 21.2368 25.9323C21.1217 26.2393 18.8478 27.2179 17.3032 27.6209C15.6626 28.043 13.4847 28.1198 11.6906 27.8128Z" fill="#88CCDE"/>
<path d="M15.25 19.8976C11.9688 19.1684 9.40713 16.8466 8.31339 13.6133C8.01597 12.7115 8.00638 12.6827 8.01597 10.831C8.01597 9.03691 8.02557 8.93138 8.28461 8.14465C9.51267 4.46048 12.5924 1.9468 16.1998 1.66856C17.188 1.58222 17.3895 1.72613 16.5548 1.88923C15.9408 2.01396 15.1732 2.38813 14.2522 3.00216C13.8876 3.24201 13.5614 3.44349 13.523 3.44349C13.4367 3.44349 13.0433 3.86564 13.0433 3.96158C13.0433 4.00955 12.8994 4.20143 12.7171 4.40291C12.2278 4.94978 11.6426 5.99555 11.3644 6.84943C11.1629 7.43468 11.0957 7.87601 11.0573 8.7299C10.9038 12.0111 12.4101 14.544 15.3747 15.9735C17.4855 16.9905 19.9704 16.9713 22.1386 15.9064C22.5704 15.6953 22.9254 15.4842 22.9254 15.4362C22.9254 15.3787 22.9637 15.3403 23.0213 15.3403C23.2899 15.3403 24.9593 13.6517 25.3335 12.9897C25.7269 12.3181 26.1394 11.3107 26.2258 10.8118C26.2641 10.6104 26.3409 10.4473 26.3889 10.4473C26.5232 10.4473 26.4177 11.7904 26.2162 12.7499C25.9188 14.1794 25.2184 15.6761 24.4892 16.4724C24.3165 16.6547 24.1726 16.837 24.1726 16.8658C24.1726 16.9809 23.0789 17.9883 22.532 18.3913C21.8412 18.8902 21.0737 19.2739 19.9512 19.6673C19.0781 19.9743 18.9726 19.9839 17.4567 20.0127C16.3533 20.0223 15.6817 19.9935 15.25 19.8976Z" fill="#88CCDE"/>
</g>
<defs>
<clipPath id="clip0_101_36">
<rect width="28" height="28" rx="14" fill="white"/>
</clipPath>
</defs>
</svg>
