<svg width="32" height="32" viewBox="0 0 32 32" fill="none" xmlns="http://www.w3.org/2000/svg">
<rect width="32" height="32" fill="white"/>
<path d="M25.6136 7.39367C25.5911 7.2583 25.4783 7.16805 25.3655 7.16805C25.2527 7.16805 23.2673 7.12293 23.2673 7.12293C23.2673 7.12293 21.5977 5.49852 21.4398 5.3406C21.2819 5.18267 20.9435 5.22779 20.8307 5.27291C20.8307 5.27291 20.5148 5.36316 19.9959 5.52109C19.9057 5.22779 19.7703 4.88937 19.5898 4.52839C19.0032 3.40033 18.1233 2.79118 17.0855 2.79118C17.0178 2.79118 16.9501 2.79118 16.8599 2.81374C16.8373 2.76862 16.7922 2.74606 16.7696 2.70093C16.3184 2.20459 15.7318 1.97897 15.0324 2.00154C13.6788 2.04666 12.3251 3.01679 11.2422 4.754C10.4751 5.97231 9.88848 7.50647 9.70799 8.70222C8.15126 9.176 7.06833 9.51442 7.04576 9.53698C6.25612 9.78516 6.23356 9.80772 6.14332 10.5522C6.07563 11.1163 4 27.0219 4 27.0219L21.2368 30L28.7045 28.15C28.682 28.1274 25.6362 7.52903 25.6136 7.39367ZM19.1386 5.79182C18.7325 5.90463 18.2812 6.06255 17.8075 6.19792C17.8075 5.52109 17.7172 4.55095 17.4014 3.73875C18.4166 3.9418 18.913 5.09242 19.1386 5.79182ZM16.8825 6.49122C15.98 6.76195 14.9873 7.07781 13.9946 7.3711C14.2654 6.31073 14.8068 5.25035 15.4385 4.55095C15.6867 4.30278 16.0251 4.00948 16.4087 3.82899C16.8148 4.61864 16.905 5.72414 16.8825 6.49122ZM15.055 2.90398C15.3709 2.90398 15.6416 2.97167 15.8672 3.10704C15.5062 3.31009 15.1452 3.58082 14.8068 3.9418C13.9495 4.86681 13.2952 6.31073 13.0245 7.68696C12.2123 7.93514 11.4001 8.18331 10.6556 8.40892C11.1293 6.24304 12.9568 2.97167 15.055 2.90398Z" fill="#95BF47"/>
<path d="M25.3655 7.16805C25.2527 7.16805 23.2673 7.12293 23.2673 7.12293C23.2673 7.12293 21.5978 5.49852 21.4398 5.34059C21.3722 5.27291 21.3045 5.25034 21.2142 5.22778V29.9774L28.682 28.1274C28.682 28.1274 25.6362 7.52903 25.6137 7.3711C25.5911 7.25829 25.4783 7.16805 25.3655 7.16805Z" fill="#5E8E3E"/>
<path d="M17.063 11.0035L16.2056 14.2523C16.2056 14.2523 15.2355 13.8011 14.0849 13.8913C12.3928 14.0041 12.3928 15.0645 12.3928 15.3352C12.483 16.7791 16.2959 17.095 16.5215 20.5017C16.6794 23.1865 15.1001 25.014 12.8214 25.1494C10.069 25.3298 8.55737 23.7054 8.55737 23.7054L9.14396 21.2237C9.14396 21.2237 10.6556 22.3743 11.8739 22.2841C12.6635 22.239 12.9568 21.5847 12.9342 21.1335C12.8214 19.2383 9.708 19.3511 9.50494 16.2377C9.34702 13.6206 11.0617 10.9584 14.852 10.7327C16.3184 10.6199 17.063 11.0035 17.063 11.0035Z" fill="white"/>
</svg>
