<svg width="32" height="32" viewBox="0 0 32 32" fill="none" xmlns="http://www.w3.org/2000/svg">
<rect width="32" height="32" fill="white"/>
<path d="M2 28.8423C2 28.8255 4.43673 25.0419 7.42116 20.4311C10.4056 15.8204 12.8423 12.0367 12.8423 12.02C12.8423 12.0032 10.7689 11.992 8.23154 11.992H3.62076V7.99601V4H16.4751C23.5449 4 29.3293 4.01118 29.3293 4.02236C29.3293 4.03353 26.9876 7.87305 24.1261 12.5565C21.2647 17.2399 18.9118 21.1074 18.895 21.1465C18.8727 21.1968 20.0016 21.2136 24.4335 21.2136H30V25.0419V28.8703H16C8.2986 28.8703 2 28.8591 2 28.8423Z" fill="#99CA3C"/>
</svg>
