<svg xmlns="http://www.w3.org/2000/svg" width="24" height="24" viewBox="0 0 24 24">
  <g fill="#0A0B09" fill-rule="evenodd">
    <polygon points="5.949 10.872 5.949 12.923 7.59 11.897"/>
    <polygon points="11.282 9.473 11.282 6.564 6.359 9.822 8.558 11.282"/>
    <polygon points="17.436 9.822 12.513 6.564 12.513 9.473 15.237 11.282"/>
    <polygon points="6.359 14.178 11.282 17.436 11.282 14.527 8.558 12.718"/>
    <polygon points="12.513 14.527 12.513 17.436 17.436 14.178 15.237 12.718"/>
    <polygon points="11.897 10.462 9.641 12 11.897 13.538 14.154 12"/>
    <path d="M19.4091696,14.2413975 C19.4091696,14.2694481 19.4071949,14.2970937 19.4034987,14.3247392 C19.4021316,14.3337013 19.3999544,14.3430684 19.3984354,14.3520304 C19.3951443,14.3699544 19.3920051,14.3878785 19.3872962,14.4053975 C19.3846127,14.4159291 19.3807139,14.4260051 19.3773722,14.4361823 C19.3723089,14.4517266 19.3672962,14.4673722 19.3610684,14.4829671 C19.3567646,14.4934481 19.3514481,14.5035747 19.3468405,14.5137013 C19.3400051,14.5281316 19.3329671,14.5421063 19.3252203,14.5561823 C19.3194987,14.5659038 19.313119,14.5756759 19.307043,14.5853975 C19.2984861,14.5986633 19.2897772,14.6115241 19.2802076,14.6239797 C19.2731696,14.6337013 19.2659797,14.6426633 19.2582329,14.6516253 C19.2482582,14.6632709 19.2377266,14.6749671 19.226638,14.6858532 C19.2182329,14.6944608 19.2100304,14.7030177 19.2013215,14.7108152 C19.1898278,14.7213468 19.1775747,14.7314734 19.165119,14.7411949 C19.1557013,14.748638 19.1463848,14.7560304 19.1364101,14.7630177 C19.1327646,14.7653975 19.1294734,14.7684861 19.1257266,14.7708152 L12.3567646,19.2836253 C12.2498278,19.3549165 12.1268911,19.3907139 12.0036,19.3907139 C11.8807139,19.3907139 11.7575747,19.3549165 11.650638,19.2836253 L4.88147342,14.7708152 C4.87792911,14.7684861 4.87463797,14.7653975 4.8711443,14.7630177 C4.86116962,14.7560304 4.85165063,14.748638 4.84228354,14.7411949 C4.82982785,14.7314734 4.81772658,14.7213468 4.80623291,14.7108152 C4.79747342,14.7030177 4.78911899,14.6944608 4.78071392,14.6858532 C4.76962532,14.6749671 4.75934684,14.6632709 4.74896709,14.6516253 C4.74157468,14.6426633 4.73418228,14.6337013 4.72719494,14.6239797 C4.71782785,14.6115241 4.70886582,14.5986633 4.70046076,14.5853975 C4.69403038,14.5756759 4.68800506,14.5659038 4.68218228,14.5561823 C4.67438481,14.5421063 4.66739747,14.5281316 4.66056203,14.5137013 C4.65570127,14.5035747 4.65078987,14.4934481 4.64633418,14.4829671 C4.64010633,14.4673722 4.63484051,14.4517266 4.62997975,14.4361823 C4.62648608,14.4260051 4.62299241,14.4159291 4.6200557,14.4053975 C4.61534684,14.3878785 4.61225823,14.3699544 4.60891646,14.3520304 C4.60739747,14.3430684 4.60506835,14.3337013 4.60385316,14.3247392 C4.60015696,14.2970937 4.59803038,14.2694481 4.59803038,14.2413975 L4.59803038,9.72858734 C4.59803038,9.70053671 4.60015696,9.67289114 4.60385316,9.6456 C4.60506835,9.63628354 4.60739747,9.62732152 4.60891646,9.61795443 C4.61225823,9.60003038 4.61534684,9.58210633 4.6200557,9.56458734 C4.62299241,9.5540557 4.62648608,9.54392911 4.62997975,9.53380253 C4.63484051,9.51820759 4.64010633,9.50266329 4.64633418,9.48742278 C4.65078987,9.47694177 4.65570127,9.46641013 4.66056203,9.45628354 C4.66739747,9.44185316 4.67438481,9.42782785 4.68218228,9.41420759 C4.68800506,9.40408101 4.69403038,9.39435949 4.70046076,9.38458734 C4.70886582,9.37137215 4.71782785,9.35851139 4.72719494,9.34600506 C4.73418228,9.33668861 4.74157468,9.32732152 4.74896709,9.31841013 C4.75934684,9.30671392 4.76962532,9.29501772 4.78071392,9.28408101 C4.78911899,9.27552405 4.79747342,9.26696709 4.80623291,9.25916962 C4.81772658,9.24863797 4.82982785,9.23851139 4.84228354,9.22873924 C4.85165063,9.22134684 4.86116962,9.21395443 4.8711443,9.20696709 C4.87463797,9.20458734 4.87792911,9.20149873 4.88147342,9.19916962 L11.650638,4.68635949 C11.8645114,4.54377722 12.1428405,4.54377722 12.3567646,4.68635949 L19.1257266,9.19916962 C19.1294734,9.20149873 19.1327646,9.20458734 19.1364101,9.20696709 C19.1463848,9.21395443 19.1557013,9.22134684 19.165119,9.22873924 C19.1775747,9.23851139 19.1898278,9.24863797 19.2013215,9.25916962 C19.2100304,9.26696709 19.2182329,9.27552405 19.226638,9.28408101 C19.2377266,9.29501772 19.2482582,9.30671392 19.2582329,9.31841013 C19.2659797,9.32732152 19.2731696,9.33668861 19.2802076,9.34600506 C19.2897772,9.35851139 19.2984861,9.37137215 19.307043,9.38458734 C19.313119,9.39435949 19.3194987,9.40408101 19.3252203,9.41420759 C19.3329671,9.42782785 19.3400051,9.44185316 19.3468405,9.45628354 C19.3514481,9.46641013 19.3567646,9.47694177 19.3610684,9.48742278 C19.3672962,9.50266329 19.3723089,9.51820759 19.3773722,9.53380253 C19.3807139,9.54392911 19.3846127,9.5540557 19.3872962,9.56458734 C19.3920051,9.58210633 19.3951443,9.60003038 19.3984354,9.61795443 C19.3999544,9.62732152 19.4021316,9.63628354 19.4034987,9.6456 C19.4071949,9.67289114 19.4091696,9.70053671 19.4091696,9.72858734 L19.4091696,14.2413975 Z M12.0036,0.0078278481 C5.38906835,0.0078278481 0.0265873418,5.37010633 0.0265873418,11.9849924 C0.0265873418,18.5999291 5.38906835,23.9619544 12.0036,23.9619544 C18.6185367,23.9619544 23.9807646,18.5999291 23.9807646,11.9849924 C23.9807646,5.37010633 18.6185367,0.0078278481 12.0036,0.0078278481 Z"/>
    <polygon points="18.136 13.05 18.136 10.92 16.544 11.985"/>
  </g>
</svg>
