<svg xmlns="http://www.w3.org/2000/svg" width="24" height="24" viewBox="0 0 24 24">
  <path d="M4.98,2.60869565 C4.98,4.04973913 3.87,5.2173913 2.5,5.2173913 C1.13,5.2173913 0.02,4.04973913 0.02,2.60869565 C0.02,1.16869565 1.13,0 2.5,0 C3.87,0 4.98,1.16869565 4.98,2.60869565 Z M5,7.30434783 L0,7.30434783 L0,24 L5,24 L5,7.30434783 Z M12.982,7.30434783 L8.014,7.30434783 L8.014,24 L12.983,24 L12.983,15.2358261 C12.983,10.3627826 19.012,9.96417391 19.012,15.2358261 L19.012,24 L24,24 L24,13.4285217 C24,5.20591304 15.078,5.5053913 12.982,9.55304348 L12.982,7.30434783 Z"/>
</svg>
